<?xml version="1.0" encoding="iso-8859-1"?>
<!-- Generator: Adobe Illustrator 19.0.0, SVG Export Plug-In . SVG Version: 6.00 Build 0)  -->
<svg version="1.1" id="Layer_1"
	xmlns="http://www.w3.org/2000/svg"
	xmlns:xlink="http://www.w3.org/1999/xlink" x="0px" y="0px" viewBox="0 0 512.001 512.001" style="enable-background:new 0 0 512.001 512.001;" xml:space="preserve">
	<g>
		<path style="fill:#F4B2B0;" d="M332.023,150.817c36.827,36.827,54.944,85.293,54.33,133.546
		c-48.251,0.614-96.719-17.502-133.546-54.33c-36.827-36.827-54.944-85.293-54.33-133.546
		C246.728,95.873,295.195,113.991,332.023,150.817z"/>
		<path style="fill:#F4B2B0;" d="M148.803,334.038c36.827,36.827,54.944,85.293,54.33,133.546
		c-48.251,0.614-96.719-17.502-133.546-54.33s-54.944-85.293-54.33-133.546C63.508,279.093,111.976,297.211,148.803,334.038z"/>
	</g>
	<g>
		<path style="fill:#B3404A;" d="M398.527,293.505c0.139-0.184,0.285-0.361,0.415-0.552c0.137-0.2,0.256-0.412,0.383-0.617
		c0.128-0.207,0.262-0.408,0.381-0.62c0.113-0.204,0.207-0.419,0.311-0.629c0.111-0.227,0.233-0.45,0.334-0.683
		c0.093-0.213,0.165-0.437,0.248-0.657c0.091-0.241,0.191-0.476,0.27-0.722c0.075-0.232,0.126-0.471,0.191-0.707
		c0.066-0.244,0.142-0.483,0.195-0.732c0.059-0.274,0.093-0.556,0.137-0.835c0.035-0.219,0.082-0.433,0.107-0.655
		c0.056-0.505,0.09-1.018,0.096-1.536c0.695-54.586-20.185-105.91-58.792-144.516c-32.578-32.579-74.165-52.519-119.182-57.549
		c-7.917-0.887-15.935-1.299-24.021-1.245c-0.43,0.003-0.86-0.005-1.291,0c-7.258,0.081-14.622,0.572-21.878,1.459
		c-44.895,5.457-85.568,25.283-117.618,57.335c-32.054,32.052-51.88,72.723-57.335,117.612c-0.887,7.264-1.378,14.628-1.459,21.861
		c-0.695,54.586,20.185,105.91,58.792,144.517c37.986,37.986,88.281,58.811,141.859,58.811c0.878,0,1.756-0.005,2.635-0.017
		c7.266-0.082,14.629-0.572,21.877-1.459c44.896-5.457,85.568-25.283,117.62-57.337c5.952-5.952,5.952-15.603,0-21.555
		c-0.014-0.014-0.027-0.024-0.041-0.037c-0.015-0.015-0.029-0.034-0.044-0.049L222.362,282.039l30.848-30.848
		c36.385,31.337,82.266,48.433,130.769,48.433c0.783,0,1.574-0.006,2.359-0.015c0.006,0,0.014,0,0.02,0c0.002,0,0.005,0,0.006,0
		c0.061,0,0.123,0,0.184-0.002c0.221-0.003,0.436-0.029,0.654-0.041c0.265-0.015,0.533-0.021,0.794-0.05
		c0.239-0.026,0.471-0.07,0.706-0.107c0.262-0.041,0.527-0.075,0.785-0.128c0.235-0.049,0.462-0.117,0.692-0.177
		c0.25-0.064,0.501-0.122,0.747-0.198c0.233-0.073,0.459-0.165,0.687-0.248c0.232-0.085,0.465-0.163,0.69-0.258
		c0.236-0.101,0.46-0.218,0.69-0.329c0.207-0.101,0.421-0.194,0.622-0.303c0.232-0.126,0.453-0.27,0.677-0.407
		c0.189-0.116,0.381-0.223,0.564-0.346c0.221-0.148,0.427-0.314,0.64-0.473c0.174-0.131,0.354-0.255,0.521-0.392
		c0.204-0.168,0.395-0.352,0.59-0.53c0.162-0.146,0.328-0.287,0.483-0.439c0.186-0.184,0.355-0.383,0.53-0.576
		c0.149-0.165,0.305-0.32,0.447-0.491C398.23,293.915,398.377,293.708,398.527,293.505z M253.277,208.006
		c-22.816-27.204-36.346-60.379-39.065-95.765c0.175,0.014,0.352,0.026,0.529,0.04c2.19,0.175,4.373,0.392,6.546,0.651
		c0.358,0.043,0.715,0.088,1.073,0.134c2.253,0.282,4.498,0.601,6.729,0.971c0.151,0.024,0.3,0.053,0.451,0.079
		c4.777,0.806,9.5,1.811,14.163,3.015c0.114,0.029,0.229,0.058,0.343,0.087c2.315,0.604,4.615,1.256,6.898,1.956
		c0.113,0.035,0.226,0.07,0.34,0.105c9.445,2.916,18.606,6.653,27.39,11.178c0.034,0.017,0.067,0.035,0.101,0.052
		c2.178,1.123,4.332,2.295,6.463,3.515c0.049,0.027,0.098,0.056,0.145,0.084c6.348,3.643,12.475,7.717,18.356,12.195
		c0.18,0.137,0.361,0.273,0.541,0.41c1.803,1.384,3.58,2.811,5.333,4.272c0.125,0.104,0.248,0.209,0.373,0.314L253.277,208.006z
		 M186.458,451.749c-1.89-0.155-3.774-0.343-5.65-0.561c-0.739-0.085-1.475-0.181-2.213-0.276c-1.882-0.244-3.759-0.506-5.626-0.811
		c-0.636-0.104-1.268-0.223-1.902-0.334c-1.648-0.288-3.289-0.598-4.923-0.934c-0.611-0.125-1.224-0.247-1.832-0.38
		c-1.863-0.404-3.714-0.846-5.559-1.312c-0.565-0.143-1.131-0.282-1.695-0.43c-1.946-0.514-3.879-1.062-5.803-1.645
		c-0.508-0.152-1.012-0.309-1.518-0.466c-1.991-0.622-3.971-1.276-5.935-1.971c-0.354-0.125-0.704-0.256-1.058-0.384
		c-2.111-0.764-4.211-1.556-6.289-2.404c-0.029-0.012-0.056-0.024-0.085-0.037c-2.167-0.886-4.313-1.821-6.443-2.795
		c-0.165-0.075-0.331-0.148-0.495-0.224c-2.076-0.959-4.131-1.965-6.167-3.009c-0.232-0.119-0.465-0.238-0.697-0.357
		c-2.023-1.049-4.025-2.137-6.007-3.268c-0.197-0.113-0.393-0.227-0.59-0.34c-2.035-1.172-4.05-2.382-6.039-3.641
		c-0.046-0.029-0.091-0.059-0.137-0.088c-2.07-1.314-4.114-2.672-6.13-4.077c-0.014-0.011-0.029-0.02-0.043-0.029
		c-1.919-1.34-3.809-2.728-5.679-4.152c-0.219-0.166-0.439-0.331-0.658-0.498c-1.777-1.366-3.53-2.772-5.261-4.214
		c-0.134-0.111-0.268-0.226-0.401-0.337l56.709-56.709c22.812,27.202,36.344,60.373,39.063,95.755
		C187.083,451.795,186.771,451.775,186.458,451.749z M70.067,391.218c-0.131-0.155-0.262-0.309-0.392-0.466
		c-1.408-1.69-2.782-3.402-4.117-5.138c-0.221-0.287-0.437-0.576-0.655-0.864c-1.366-1.797-2.701-3.612-3.989-5.454
		c-0.099-0.142-0.194-0.287-0.293-0.428c-1.274-1.834-2.507-3.69-3.704-5.566c-0.116-0.18-0.235-0.358-0.349-0.54
		c-1.187-1.878-2.329-3.781-3.439-5.7c-0.186-0.323-0.375-0.645-0.559-0.968c-1.068-1.876-2.1-3.772-3.094-5.687
		c-0.181-0.348-0.358-0.698-0.537-1.047c-0.992-1.94-1.951-3.897-2.865-5.873c-0.123-0.267-0.241-0.537-0.363-0.805
		c-0.921-2.018-1.809-4.051-2.649-6.104c-0.035-0.085-0.073-0.169-0.107-0.255c-0.844-2.073-1.635-4.167-2.396-6.274
		c-0.12-0.334-0.245-0.666-0.364-1c-0.713-2.017-1.384-4.048-2.021-6.091c-0.128-0.412-0.256-0.825-0.381-1.238
		c-0.617-2.035-1.2-4.083-1.739-6.144c-0.101-0.384-0.195-0.77-0.293-1.155c-0.543-2.129-1.055-4.269-1.514-6.423
		c-0.043-0.2-0.079-0.401-0.12-0.601c-0.436-2.082-0.831-4.176-1.189-6.28c-0.055-0.319-0.114-0.634-0.168-0.953
		c-0.351-2.129-0.652-4.271-0.924-6.421c-0.056-0.445-0.114-0.892-0.166-1.338c-0.25-2.116-0.46-4.242-0.631-6.374
		c-0.015-0.195-0.027-0.39-0.043-0.584c35.384,2.733,68.594,16.286,95.768,39.06L70.067,391.218z M309.986,412.773
		c-25.193,21.14-55.494,34.323-88.494,38.333c-1.184,0.145-2.375,0.265-3.565,0.386c-2.891-43.404-19.546-84.076-47.966-117.056
		l30.845-30.845L309.986,412.773z M130.664,233.451l48.585,48.585l-30.846,30.846c-32.939-28.367-73.679-45.061-117.054-47.966
		c0.12-1.193,0.242-2.388,0.387-3.579c4.627-38.065,21.442-72.556,48.631-99.743c27.187-27.187,61.676-44.003,99.75-48.631
		c1.186-0.145,2.376-0.265,3.567-0.386c2.891,43.406,19.546,84.077,47.968,117.056l-30.845,30.845l-48.585-48.585
		c-5.952-5.952-15.603-5.952-21.557,0C124.71,217.846,124.712,227.497,130.664,233.451z M331.543,172.854
		c0.131,0.155,0.262,0.311,0.392,0.466c1.407,1.69,2.782,3.402,4.117,5.138c0.221,0.287,0.436,0.575,0.654,0.863
		c1.366,1.799,2.702,3.614,3.99,5.457c0.098,0.14,0.191,0.282,0.288,0.421c1.279,1.84,2.516,3.702,3.717,5.586
		c0.11,0.174,0.226,0.344,0.335,0.518c1.193,1.887,2.34,3.798,3.454,5.725c0.18,0.311,0.363,0.622,0.541,0.934
		c1.076,1.888,2.113,3.795,3.112,5.72c0.172,0.332,0.343,0.668,0.514,1.001c1.001,1.959,1.969,3.931,2.89,5.924
		c0.111,0.239,0.216,0.482,0.326,0.721c0.947,2.071,1.858,4.158,2.719,6.266c0.017,0.04,0.034,0.078,0.049,0.117
		c0.86,2.111,1.666,4.242,2.44,6.386c0.105,0.291,0.213,0.579,0.317,0.872c0.729,2.056,1.413,4.129,2.062,6.214
		c0.113,0.361,0.224,0.724,0.334,1.087c0.633,2.084,1.228,4.179,1.78,6.287c0.084,0.323,0.163,0.648,0.247,0.971
		c0.559,2.189,1.084,4.387,1.556,6.601c0.026,0.119,0.047,0.238,0.072,0.357c0.463,2.198,0.878,4.408,1.254,6.629
		c0.04,0.238,0.085,0.473,0.125,0.71c0.361,2.192,0.674,4.396,0.95,6.609c0.047,0.38,0.096,0.758,0.142,1.139
		c0.258,2.169,0.472,4.348,0.646,6.536c0.014,0.171,0.024,0.343,0.038,0.514c-35.384-2.733-68.596-16.287-95.769-39.062
		L331.543,172.854z"/>
		<path style="fill:#B3404A;" d="M331.855,77.428c-3.9,0-7.801-1.488-10.778-4.464c-5.952-5.952-5.953-15.603,0-21.555l12.931-12.931
		c5.952-5.952,15.603-5.953,21.555,0c5.952,5.953,5.953,15.603,0,21.555l-12.931,12.931
		C339.657,75.938,335.755,77.428,331.855,77.428z"/>
		<path style="fill:#B3404A;" d="M370.117,115.688c-3.9,0-7.802-1.488-10.777-4.464c-5.952-5.952-5.952-15.603,0-21.557
		l56.046-56.046c5.952-5.952,15.603-5.952,21.557,0c5.952,5.952,5.952,15.603,0,21.557l-56.047,56.046
		C377.919,114.2,374.017,115.688,370.117,115.688z"/>
		<path style="fill:#B3404A;" d="M408.377,153.948c-3.9,0-7.802-1.488-10.778-4.464c-5.952-5.952-5.952-15.603,0-21.557
		l13.286-13.286c5.952-5.952,15.603-5.952,21.557,0c5.952,5.952,5.952,15.603,0,21.557l-13.286,13.286
		C416.179,152.46,412.277,153.948,408.377,153.948z"/>
		<path style="fill:#B3404A;" d="M462.08,100.243c-3.9,0-7.802-1.488-10.778-4.464c-5.952-5.952-5.952-15.603,0-21.557l34.678-34.678
		c5.952-5.952,15.603-5.952,21.557,0c5.952,5.952,5.952,15.603,0,21.557l-34.678,34.678
		C469.882,98.755,465.98,100.243,462.08,100.243z"/>
	</g>
	<g>
	</g>
	<g>
	</g>
	<g>
	</g>
	<g>
	</g>
	<g>
	</g>
	<g>
	</g>
	<g>
	</g>
	<g>
	</g>
	<g>
	</g>
	<g>
	</g>
	<g>
	</g>
	<g>
	</g>
	<g>
	</g>
	<g>
	</g>
	<g>
	</g>
</svg>
